<?xml version="1.0" encoding="utf-8"?>
<!-- Generator: Adobe Illustrator 25.0.1, SVG Export Plug-In . SVG Version: 6.00 Build 0)  -->
<svg version="1.1" id="Layer_1" xmlns="http://www.w3.org/2000/svg" xmlns:xlink="http://www.w3.org/1999/xlink" x="0px" y="0px"
	 viewBox="0 0 24 24" style="enable-background:new 0 0 24 24;" xml:space="preserve">
<style type="text/css">
	.st0{fill:none;}
	.st1{fill:#FF6701;}
</style>
<g>
	<path class="st0" d="M0,0h24v24H0V0z"/>
	<path class="st1" d="M5.7,18.1c-2.6-1.6-4.2-4-4.2-6.7C1.5,6.7,6.2,3,12,3s10.5,3.7,10.5,8.4s-4.7,8.4-10.5,8.4
		c-0.4,0-0.9,0-1.3-0.1l-3.8,2.5c-0.6,0.3-1,0.4-1.5,0.1c-0.6-0.4-0.6-0.9-0.4-1.6C5.1,20.7,5.7,18.1,5.7,18.1z M3.5,11.4
		c0,2.1,1.4,4.1,3.8,5.3L8,17.1l-0.2,0.8l-0.4,1.6l2.8-1.8l0.4,0c0.5,0.1,1,0.1,1.4,0.1c4.7,0,8.5-2.9,8.5-6.4S16.7,5,12,5
		S3.5,7.9,3.5,11.4z M17.9,11.1l1.5,2.2c0.1,0.2,0.1,0.5-0.1,0.7c-0.2,0.1-0.5,0.1-0.7-0.1l-1.4-2l-0.4,0.4v1.4
		c0,0.3-0.2,0.5-0.5,0.5s-0.5-0.2-0.5-0.5v-1.4c0-0.1,0-0.1,0-0.2V9.3c0-0.3,0.2-0.5,0.5-0.5s0.5,0.2,0.5,0.5v1.5L18.7,9
		c0.2-0.2,0.5-0.2,0.7,0c0.2,0.2,0.2,0.5,0,0.6L17.9,11.1z M14.9,13c0.3,0,0.5,0.2,0.5,0.5s-0.2,0.5-0.5,0.5H13
		c-0.3,0-0.5-0.2-0.5-0.5V9.3c0-0.3,0.2-0.5,0.4-0.5c0.3,0,0.5,0.2,0.5,0.4c0,0,0,0,0,0V13H14.9z M9.1,11.9h1.3l-0.6-1.7
		C9.8,10.2,9.1,11.9,9.1,11.9z M11.6,12.4l0.3,0.9c0.1,0.2,0,0.5-0.3,0.6c-0.2,0.1-0.5,0-0.6-0.3c0,0,0,0,0,0l-0.3-0.8H8.7l-0.3,0.8
		C8.3,13.9,8,14,7.8,13.9c-0.2-0.1-0.4-0.4-0.3-0.6l0,0l1.7-4.1c0.1-0.3,0.4-0.4,0.7-0.4c0.3,0,0.5,0.2,0.6,0.5l1,2.8
		C11.6,12.1,11.6,12.2,11.6,12.4C11.6,12.4,11.6,12.4,11.6,12.4z M8.3,9.3c0,0.3-0.2,0.5-0.5,0.5H6.7v3.7c0,0.3-0.2,0.5-0.5,0.5
		c-0.3,0-0.5-0.2-0.5-0.5V9.8H4.6c-0.3,0-0.5-0.2-0.5-0.5s0.2-0.5,0.5-0.5l0,0h3.2C8.1,8.8,8.3,9,8.3,9.3z"/>
</g>
</svg>
