<?xml version="1.0" encoding="utf-8"?>
<!-- Generator: Adobe Illustrator 25.0.1, SVG Export Plug-In . SVG Version: 6.00 Build 0)  -->
<svg version="1.1" id="Layer_1" xmlns="http://www.w3.org/2000/svg" xmlns:xlink="http://www.w3.org/1999/xlink" x="0px" y="0px"
	 viewBox="0 0 204.6 105.1" style="enable-background:new 0 0 204.6 105.1;" xml:space="preserve">
<style type="text/css">
	.st0{fill:#E14973;}
	.st1{fill:#E4E417;}
</style>
<g>
	<g>
		<path class="st0" d="M0.4,97c-0.1-0.6-0.1-3.2,0-3.2c1.6,0,7.6-1.8,8.9-2.5c1-0.6,1.1-0.5,2,1.1c0.6,1.4,0.6,1.3-2.5,2.9
			C5.4,97,0.6,98,0.4,97z M0.5,92.4c0-2,4.4-6.3,5.8-5.6c1.1,0.6,3.2,2.8,2.9,3.2C8.3,91.2,0.5,93.2,0.5,92.4z M5.1,101.1
			c-2.6,0.5-2.8,0.5-3.5-0.9c-0.9-1.5-0.9-1.5-0.1-1.6c0.3-0.1,1.3-0.4,2.3-0.5c2.8-0.6,5.2-1.4,6.8-2.4c1.8-1,1.8-1,2,1
			C12.7,98.5,9.8,100.1,5.1,101.1z M12.6,99.4l-0.3,1.4c-0.1,1.1-0.6,3-1.1,3.5c-0.3,0.4-3.3,0.4-4.2,0.1c-1.9-0.6-4-2-3-2.1
			c1.1,0,4.5-0.9,6.4-1.9L12.6,99.4z M53.7,42c3.5,14.8,2.4,31.7-2.8,42.3c-2.4,5-2.4,5.2-5.3,5.3c-6.7,0.3-12.4,4.9-15.4,12.6
			c-0.6,1.4-17.8,3.7-17.8,2.4c0-0.1,0.1-0.9,0.5-1.5c1.8-4.8,0.4-10.8-3.5-14.8c-2.4-2.4-2.5-2.1,3-2.4c4.7-0.1,8.9-1.3,11.6-3.2
			c6.6-4.4,9.6-20.7,7.2-39.4c-0.6-5.2-0.6-5-1.9-5.3c-6.8-1-9.8-5.2-9.8-14.1c0-7.4,2.5-8.8,16.8-8.8c20.2,0,24.3,1.3,25.8,7.7
			c2.1,9.7-0.6,16.5-7.2,17.4C53.2,40.5,53.3,40.3,53.7,42z M19.3,91.7c-0.1,0.3-0.1,0.4,0,0.6c0.4,0.4,0.6,0.5,0.9,0.1
			C20.4,92,19.6,91.4,19.3,91.7z M28,33.6c-0.9-4-1.3-8.5-1.3-12.7v-4.2L25.6,17c-4.2,0.6-5.5,5.8-3.7,13.2c1,3.7,3.4,5.9,6.3,6.1
			C28.3,36.3,28.2,35.3,28,33.6z M22.7,99.4c0-0.3-0.3-0.4-0.5-0.4c-0.3,0-0.5,0.1-0.5,0.4c0,0.4,0.1,0.4,0.5,0.4
			C22.7,99.7,22.8,99.7,22.7,99.4z M34.6,35.2c-0.9-4.5-1.1-7.2-1.1-13v-5.7h-2.4c-1.4,0-2.6,0.1-2.8,0.3
			c-0.8,0.4-0.1,10.1,0.9,15.8c0.8,4,0.8,3.9,3.2,4.3c1.1,0.1,2.1,0.3,2.3,0.3C35,37.2,35,37,34.6,35.2z M36.7,97
			c1,2.1,0.5,2.8-3.3,4.4c-2.1,0.9-2.1,0.9-1.8-0.1C33.6,96.5,35.6,94.7,36.7,97z M33.8,85.5c0-0.3-0.1-0.5-0.3-0.5
			c-0.3-0.3-0.8,0.3-0.5,0.5C33.3,85.9,33.8,85.9,33.8,85.5z M42.7,32.8c-0.3-8.3-1-15.9-1.9-16.1c-1.3-0.4-5.5-0.1-5.8,0.3
			C34.3,19,35.6,36,36.8,37.3c0.1,0.1,3.8,0.6,5.5,0.8C42.7,38.2,42.8,37.8,42.7,32.8z M39.7,50.8c-0.4-0.3-0.8-0.6-0.9-0.9
			c-0.1-1-0.9-0.8-1.1,0.1c-0.1,0.5-0.5,1.1-0.8,1.4c-0.8,0.8-0.8,1,0,1.5c0.4,0.3,0.5,0.6,0.5,0.9c0,1.3,0.9,1.1,1.4-0.1
			c0.3-0.6,0.8-1.3,1.1-1.4C40.7,51.7,40.6,51.2,39.7,50.8z M41.7,93.8c0.4,2.1,0.3,2.5-1.8,3.8l-1.8,1.3l-0.1-1
			c0-0.5-0.4-1.5-0.9-2c-0.8-1.4-0.8-1.4,1.8-3.2C40.7,91.5,41.4,91.8,41.7,93.8z M38.3,72.7c0.1-0.4,0-0.5-0.4-0.5
			c-0.5,0-0.8,0.3-0.6,0.8C37.5,73.5,38.3,73.3,38.3,72.7z M45.9,92.2c-2.4,2.9-2.8,3.3-3,2.1c0-0.5-0.3-1.4-0.5-2
			c-0.5-1.3-0.6-1.1,1.3-1.6C47.2,89.9,47.6,90.2,45.9,92.2z M50.1,17.7c-0.4-1.3-7.6-1.5-7.3-0.3c0.6,3,1.1,9.8,1.3,14.9l0.1,5.8
			l2.5,0.1c1.4,0.1,2.8,0.3,3,0.3c0.4,0,0.6-0.1,0.6-0.4C51.4,35.7,51.3,21.9,50.1,17.7z M47.1,80.6c0.1-0.8-0.6-1-1-0.5
			c-0.4,0.6-0.1,1.1,0.4,1C46.9,81.1,47,80.8,47.1,80.6z M48.1,62.2c-0.5,0-0.6,0.1-0.8,0.6c-0.1,1,1.1,1.5,1.6,0.6
			C49.4,62.8,49,62.2,48.1,62.2z M49.4,50.4c0-0.1-0.1-0.4-0.3-0.4c-0.5,0-0.8,0.4-0.5,0.8C48.9,51.2,49.3,50.9,49.4,50.4z
			 M55.4,38.6c1.6-0.6,3-7.3,2.9-14.5c0-5.6,0-5.6-3.5-6.3c-3.2-0.6-3.4-0.6-3.2,0c0.8,2.8,1.3,13.8,0.8,18c-0.4,2.4-0.4,2.5,0,2.5
			c0.3,0,0.5,0.1,0.5,0.3C52.9,38.9,54.4,38.8,55.4,38.6z M58.5,36c-0.1,0.5-0.3,1-0.3,1.1c0,0.1,0.9-0.6,1.4-1.3
			c1.8-1.9,2.1-5.9,1.1-11.6c-0.6-4-0.9-3.8-0.9,0.6C59.8,29,59.2,34,58.5,36z"/>
		<path class="st0" d="M76,101.6c1.5,1.8,2.9,3.2,2.8,3.2c-0.1,0.1-6.7,0.3-7.2,0.1c-1.8-0.3-1.6-3.4,0.1-5l1.3-1.1L76,101.6z
			 M81.4,98.4c-1.3,5.7-1.1,5.7-3.4,3.2c-4-4.4-4.9-4.9-6.6-3.3L70.6,99v-7.7c0-5.2,0.3-7.8,0.6-7.9c0.4-0.3,1.6-1,3-1.9
			c1.5-1.1,2.5-1.4,2.9-0.9c0.4,0.4,1.3,1.4,1.9,2.1c0.8,0.8,1.6,1.9,2.1,2.6c2.8,4,3.3,4,4.3-0.6c0.9-4.7,1.8-7.1,2.3-6.3
			c0.1,0.4,3.8,2,6.2,3c1.8,0.8,1.6,0.3,2,4.9c0.1,1.4,0.1,1.5-0.5,2.1c-0.4,0.4-1.8,2.3-3.3,4.4c-1.4,2.1-2.5,3.8-2.6,3.9
			c-0.1,0.1-2.4-1-3.9-2C82.8,93.1,82.4,93.3,81.4,98.4z M135.5,53.8c0.1,0,0.1,7.7,0.1,17.2v17.2h-1.1c-0.8,0-2.3,0-3.4,0.1
			c-1.3,0-2.6,0-3.2-0.1c-1.8-0.4-1.9-0.9-0.6-4.4c1.1-3,1-3.4-1.1-5c-2.4-1.6-4.3-2.8-5-2.8c-0.6,0-0.8-2.8-0.1-7.6
			c0.6-5.9-2.3-5.6-12,1.4c-2,1.4-2.1,1.5-2.4,0.5c-0.3-0.9-2.8-5.3-3.5-6.1c-1.4-1.5-2.4-0.8-3.5,2.4c-2.1,5.6-2.3,5.9-4,5.9
			c-2,0-2.6-0.4-4.3-2.8c-4.8-6.7-4.5-6.6-7.6-4.2c-1.9,1.5-1.8,1.6-2.4-0.8c-0.5-2-1.4-2.3-9.1-3l-1.5-0.3l0.3-2.6
			c0-1.6,0.1-4.3,0.1-6.2v-3.3l2.1-1c1.1-0.5,2.1-0.9,2.4-0.9c0.3,0.1,2.8,6.2,3.5,8.8c1.3,3.9,2.3,3.8,4.4-0.1
			c2.6-4.7,3.2-5,4.4-3.8c5.5,5.8,6.9,5.6,9.3-1.6l0.8-2.1l8.1-0.3c4.5,0,8.2-0.1,8.3-0.3c0,0,0.1-1.4,0.3-3l0.1-3l1.9-0.1
			c2.9-0.3,3.4,0.6,2.8,6.1c-1,9.1-0.1,10.6,3.7,6.2c3-3.4,3.9-4.3,4.2-3.7c0.3,0.6,2.3,3.9,2.8,4.4c0.5,0.6,1.4,0.5,3.5-0.4
			C134.6,54.2,135.5,53.8,135.5,53.8z M73.6,79.9c-1.4,0.9-2.6,1.8-2.8,1.8c-0.1,0,0-18.5,0.1-18.7c0.1-0.1,8.3,1.1,8.6,1.4
			c0.1,0.3,0.5,1.1,0.8,2.3c0.6,2.8,1.1,3.2,2.4,1.8c0.8-0.8,3.5-3,3.7-2.9c0.6,0.8,3.5,4.8,4.2,5.9c1.1,1.6,1.6,2,3,2.3
			c0.5,0.1,1,0.4,1.1,0.5c0.3,0.1,0.9,5.9,0.8,6.2c-0.3,0.1-5.8-2.5-7.1-3.3c-2-1.4-3,0.1-4.4,6.7c-0.4,2.3-0.4,2.3-1.6,0.4
			c-1.8-2.5-5-6.1-5.7-6.1C76.4,78.2,75,78.9,73.6,79.9z M73,46.9l-2,1l0.1-9.7c0.1-5.2,0.3-9.6,0.3-9.6s1.1-0.3,2.4-0.4
			c1.3-0.3,2.6-0.5,3.2-0.8c1.4-0.4,1.3-0.6,1.3,4.5c0,6.2-0.1,6.1,4.9,2.5c1.8-1.3,3.3-2.3,3.4-2.3c0.1,0,1.4,1.1,2.8,2.6l2.6,2.5
			l0.4,5.3c0.5,6.7,0.4,6.1,2.1,6.1c0.9,0,1.6-0.1,1.8,0c0.3,0-2.1,6.4-2.4,6.4c-0.3,0-2.8-2.1-4.4-3.7c-2.8-2.5-4-1.9-7.1,3.7
			c-1.1,2.3-1.1,2.3-1.9-0.3C77.5,46.3,76.6,45.2,73,46.9z M71.3,22.2c0-3.3,0.1-4.9,0.6-5c2-0.3,18.1-0.4,18.1-0.1
			c0,0.3,0.4,4.3,0.8,9.1l0.8,8.8l-2.3-2.1c-2.9-2.9-2.8-2.9-8.2,1.1l-1.4,1l-0.1-4c-0.1-5.6-0.3-5.8-2.8-4.9
			c-0.9,0.3-2.1,0.6-3,0.8c-0.8,0.1-1.6,0.3-1.9,0.3C71.4,27.1,71.3,25.4,71.3,22.2z M96.3,90.7c0.9,9.2,1.1,13.7,0.9,13.9
			c-0.4,0.4-16.4,0.5-16,0.1c0.4-0.6,1.1-3,1.8-5.9c0.6-3.5,0.5-3.4,2.1-2.4c1.6,1.1,3.8,2.1,4.5,2.1c0.8,0,1.3-0.8,5.5-7.2
			C95.9,90.3,96.3,90,96.3,90.7z M103.3,67.4c2.9,5,2.9,4.7-1.3,4.8l-3.4,0.1l0.6-1.3c0.4-0.8,1-2.3,1.4-3.4
			C101.4,65.7,102.3,65.6,103.3,67.4z M131.8,89.7h3.8v14.8h-8.1l0.1-2.6c0.3-3.3,0.1-3.5-1.5-3.2c-2.3,0.8-6.8,1.9-7.1,1.9
			c-0.4,0-0.4-0.1-0.3-0.9c0.3-1,1.4-9.7,1.5-10.7c0-1-0.5-1.1-1.9-0.6c-1.3,0.5-3.4,1-4.7,1c-0.6,0-0.9-0.5-0.9-1.6
			c0-1.8,0.4-10.6,0.5-13.8l0.1-1.9h-2.4l-2.5-0.1l1.8-1.1c3.5-2.5,8.2-5.2,8.9-5.2c0.1,0,0.3,0.5,0.1,1.3
			c-0.8,7.3-0.5,10.5,0.9,10.5c0.5,0,1.4,0.4,3.2,1.5c3.3,2.3,3.2,2,2.3,4.4C123.7,88.9,124.5,89.7,131.8,89.7z M126.1,104.4
			c-0.3,0.3-13.5,0.3-13.7,0c-0.3-0.4-0.3-1.4,0-6.3c0.1-3.2,0.3-6.1,0.3-6.4c0-0.5,0.5-0.9,1.5-0.9c0.9-0.1,2.3-0.4,3-0.5
			c0.8-0.1,1.4-0.3,1.4-0.3c0,0.5-1,7.9-1.3,9.5c-0.6,3.3-0.6,3.3,4.5,1.9c2-0.5,3.8-1,4-1C126.3,100.2,126.5,103.9,126.1,104.4z
			 M116.8,40.6l-1.9,0.1v-1.5c0-0.8,0.1-4.7,0.4-8.7c0.1-4,0.4-7.6,0.4-7.9c0-0.5,2.3-1,4-0.9c1,0.1,1.3,1.5,0.6,5.3
			c-0.9,5.8-0.5,5.9,8.2,2.5c1.4-0.5,1.4-0.5,1,1.3c-1.5,6.6-0.1,9.7,4.3,9.7h1.8v5.8l-0.1,5.8l-2,0.9c-1.1,0.5-2.1,0.9-2.3,0.9
			c-0.1,0-1.9-2.8-2.5-4c-1.1-2.3-2.3-1.6-6.7,3.3l-1.4,1.5l0.3-3.7C121.3,40.8,121.1,40.2,116.8,40.6z M116.1,16.4
			c0.1-0.1,3.7-0.1,9.8-0.1h9.6v22.7h-1.1c-0.6,0.1-1.4,0-1.8,0c-1.9-0.3-2.5-3.3-1.6-7.2c0.5-2.4,0.5-3.7-0.3-4
			c-0.6-0.5-0.6-0.5-3.9,0.8c-5.4,2.1-5.4,2-5-0.4c0.4-2.6,0.4-6.7,0-7.2c-0.6-0.9-3.4-1-5.7-0.4C115.7,20.6,115.7,17,116.1,16.4z"
			/>
		<path class="st0" d="M141.9,97c-0.1-0.6-0.1-3.2,0-3.2c1.6,0,7.6-1.8,8.9-2.5c1-0.6,1.1-0.5,2,1.1c0.6,1.4,0.6,1.3-2.5,2.9
			C146.9,97,142.1,98,141.9,97z M142,92.4c0-2,4.4-6.3,5.8-5.6c1.1,0.6,3.2,2.8,2.9,3.2C149.8,91.2,142,93.2,142,92.4z M146.7,101.1
			c-2.6,0.5-2.8,0.5-3.5-0.9c-0.9-1.5-0.9-1.5-0.1-1.6c0.3-0.1,1.3-0.4,2.3-0.5c2.8-0.6,5.2-1.4,6.8-2.4c1.8-1,1.8-1,2,1
			C154.2,98.5,151.3,100.1,146.7,101.1z M154.1,99.4l-0.3,1.4c-0.1,1.1-0.6,3-1.1,3.5c-0.3,0.4-3.3,0.4-4.2,0.1c-1.9-0.6-4-2-3-2.1
			c1.1,0,4.5-0.9,6.4-1.9L154.1,99.4z M195.2,42c3.5,14.8,2.4,31.7-2.8,42.3c-2.4,5-2.4,5.2-5.3,5.3c-6.7,0.3-12.4,4.9-15.4,12.6
			c-0.6,1.4-17.8,3.7-17.8,2.4c0-0.1,0.1-0.9,0.5-1.5c1.8-4.8,0.4-10.8-3.5-14.8c-2.4-2.4-2.5-2.1,3-2.4c4.7-0.1,8.9-1.3,11.6-3.2
			c6.6-4.4,9.6-20.7,7.2-39.4c-0.6-5.2-0.6-5-1.9-5.3c-6.8-1-9.8-5.2-9.8-14.1c0-7.4,2.5-8.8,16.8-8.8c20.2,0,24.3,1.3,25.8,7.7
			c2.1,9.7-0.6,16.5-7.2,17.4C194.7,40.5,194.8,40.3,195.2,42z M160.8,91.7c-0.1,0.3-0.1,0.4,0,0.6c0.4,0.4,0.6,0.5,0.9,0.1
			C161.9,92,161.2,91.4,160.8,91.7z M169.5,33.6c-0.9-4-1.3-8.5-1.3-12.7v-4.2l-1.1,0.3c-4.2,0.6-5.5,5.8-3.7,13.2
			c1,3.7,3.4,5.9,6.3,6.1C169.9,36.3,169.7,35.3,169.5,33.6z M164.2,99.4c0-0.3-0.3-0.4-0.5-0.4c-0.3,0-0.5,0.1-0.5,0.4
			c0,0.4,0.1,0.4,0.5,0.4C164.2,99.7,164.3,99.7,164.2,99.4z M176.2,35.2c-0.9-4.5-1.1-7.2-1.1-13v-5.7h-2.4c-1.4,0-2.6,0.1-2.8,0.3
			c-0.8,0.4-0.1,10.1,0.9,15.8c0.8,4,0.8,3.9,3.2,4.3c1.1,0.1,2.1,0.3,2.3,0.3C176.5,37.2,176.5,37,176.2,35.2z M178.2,97
			c1,2.1,0.5,2.8-3.3,4.4c-2.1,0.9-2.1,0.9-1.8-0.1C175.2,96.5,177.2,94.7,178.2,97z M175.3,85.5c0-0.3-0.1-0.5-0.3-0.5
			c-0.3-0.3-0.8,0.3-0.5,0.5C174.8,85.9,175.3,85.9,175.3,85.5z M184.2,32.8c-0.3-8.3-1-15.9-1.9-16.1c-1.3-0.4-5.5-0.1-5.8,0.3
			c-0.8,2.1,0.6,19.2,1.8,20.4c0.1,0.1,3.8,0.6,5.5,0.8C184.2,38.2,184.4,37.8,184.2,32.8z M181.2,50.8c-0.4-0.3-0.8-0.6-0.9-0.9
			c-0.1-1-0.9-0.8-1.1,0.1c-0.1,0.5-0.5,1.1-0.8,1.4c-0.8,0.8-0.8,1,0,1.5c0.4,0.3,0.5,0.6,0.5,0.9c0,1.3,0.9,1.1,1.4-0.1
			c0.3-0.6,0.8-1.3,1.1-1.4C182.2,51.7,182.1,51.2,181.2,50.8z M183.2,93.8c0.4,2.1,0.3,2.5-1.8,3.8l-1.8,1.3l-0.1-1
			c0-0.5-0.4-1.5-0.9-2c-0.8-1.4-0.8-1.4,1.8-3.2C182.2,91.5,183,91.8,183.2,93.8z M179.8,72.7c0.1-0.4,0-0.5-0.4-0.5
			c-0.5,0-0.8,0.3-0.6,0.8C179.1,73.5,179.8,73.3,179.8,72.7z M187.4,92.2c-2.4,2.9-2.8,3.3-3,2.1c0-0.5-0.3-1.4-0.5-2
			c-0.5-1.3-0.6-1.1,1.3-1.6C188.8,89.9,189.2,90.2,187.4,92.2z M191.7,17.7c-0.4-1.3-7.6-1.5-7.3-0.3c0.6,3,1.1,9.8,1.3,14.9
			l0.1,5.8l2.5,0.1c1.4,0.1,2.8,0.3,3,0.3c0.4,0,0.6-0.1,0.6-0.4C192.9,35.7,192.8,21.9,191.7,17.7z M188.6,80.6
			c0.1-0.8-0.6-1-1-0.5c-0.4,0.6-0.1,1.1,0.4,1C188.4,81.1,188.5,80.8,188.6,80.6z M189.7,62.2c-0.5,0-0.6,0.1-0.8,0.6
			c-0.1,1,1.1,1.5,1.6,0.6C190.9,62.8,190.5,62.2,189.7,62.2z M190.9,50.4c0-0.1-0.1-0.4-0.3-0.4c-0.5,0-0.8,0.4-0.5,0.8
			C190.4,51.2,190.8,50.9,190.9,50.4z M197,38.6c1.6-0.6,3-7.3,2.9-14.5c0-5.6,0-5.6-3.5-6.3c-3.2-0.6-3.4-0.6-3.2,0
			c0.8,2.8,1.3,13.8,0.8,18c-0.4,2.4-0.4,2.5,0,2.5c0.3,0,0.5,0.1,0.5,0.3C194.4,38.9,196,38.8,197,38.6z M200,36
			c-0.1,0.5-0.3,1-0.3,1.1c0,0.1,0.9-0.6,1.4-1.3c1.8-1.9,2.1-5.9,1.1-11.6c-0.6-4-0.9-3.8-0.9,0.6C201.4,29,200.7,34,200,36z"/>
	</g>
	<path class="st1" d="M62.3,13.4c0.8-4.4,2.1-7.7,4-9.7c1.9-2.1,4.8-3.3,8.6-3.6c1.4,0,3.4,0.3,6,0.9c2.6,0.6,4.6,1.2,5.9,1.8
		c2.1,1,4.4,2.2,6.8,3.7C96,8,97.5,9.1,98,9.7c0.6,0.8,1.4,1.2,2.4,1.2h0.3h0.7c1.8,0,3.8,0.1,5.9,0.3c1.9,0.1,3.1,0.2,3.6,0.2
		c1.1,0,1.7-0.1,1.8-0.3c0.6-1.1,3.2-2.5,7.6-4.3c4.4-1.8,8.1-2.8,11-3.1c2-0.3,3.1-0.5,3.3-0.8c0.2-0.3,1.1-0.2,2.7,0.1
		c3.2,0.7,5.4,3,6.5,6.9c0.6,1.9,0.9,3.7,0.9,5.2c0,2.9-1.2,5.8-3.7,8.5c-1.2,1.4-1.8,2.3-1.8,2.7c0,0.3,0.1,0.5,0.3,0.7
		c1.6,2.1,2.4,5.2,2.4,9.1c0,1.5-0.2,2.5-0.6,3.2c-0.6,1.3-1.4,2.2-2.2,2.7c-0.8,0.4-2,0.7-3.7,0.7c-3.6-0.1-7.4-1-11.1-2.7
		c-5.1-2.4-8.6-3.6-10.6-3.6c-0.8,0-1.2,0.3-1.2,0.8c0,1.2,1.1,3.5,3.2,6.7c2.1,3.3,4.1,5.8,6,7.6c1.2,1.1,1.7,2,1.7,2.9
		c0,0.6-0.3,1.2-1,1.8c-0.4,0.5-1.2,0.8-2.1,0.8c-0.6,0-1,0-1.3-0.1l-2.5-0.3v2.1c0,2.6-0.9,3.9-2.6,3.9c-1.3,0-2.8-0.8-4.5-2.5
		c-1-1.1-2.3-3-3.8-5.8c-1.5-2.8-2.4-4.8-2.6-6.1c-0.3-1-0.5-1.5-0.8-1.5c-0.4,0.2-1.3,2-2.9,5.3c-2.8,5.6-5.2,8.5-7.5,8.5
		c-0.8,0-1.4-0.4-1.8-1.2c-0.3-0.5-0.5-1.3-0.5-2.4c0-0.5,0-0.9,0.1-1.1c0.1-0.3,0.1-0.6,0.1-1.1c0-1-0.4-1.4-1.2-1.4
		c-0.5,0-1.3,0.2-2.5,0.6c-1.3,0.5-2.5,0.8-3.5,0.8c-0.7,0-1.2-0.3-1.6-0.9c-0.2-0.4-0.3-0.8-0.3-1.2c0-1.6,1.5-3.6,4.6-6
		c1.7-1.3,3.6-3.2,5.7-5.8c2.1-2.6,3.2-4.2,3.2-4.8c0-0.1-0.3-0.2-0.8-0.2c-2.2,0-4,0.4-5.4,1.3c-0.7,0.5-1.4,0.8-2.1,0.8
		c-0.4,0-1.5,0.6-3.5,1.8c-3.6,2.4-6.8,3.6-9.5,3.6c-0.1,0-0.2,0-0.3,0c-0.1,0-0.2,0-0.3,0c-2.2-0.5-4-1.3-5.3-2.4
		c-1.3-1.1-1.9-2.4-1.9-3.8c0-0.8,0.5-2.1,1.5-3.9c1-1.8,2-3,2.9-3.7c1.2-1,1.8-1.8,1.8-2.6c0-0.3-0.1-0.8-0.3-1.3
		c-0.4-1.1-1.5-2-3.1-2.6c-1.6-0.8-3-2-4.3-3.5l-1.9-2.4L62.3,13.4z M79.9,4.7c-2.4-0.6-3.9-1-4.7-1c-1,0-2.1,0.3-3.4,1
		c-3.1,1.7-4.7,3.8-4.7,6.5c0,0.4,0,0.7,0.1,0.9c0.3,1.9,0.5,3.2,0.6,3.9c0.1,1.3,0.3,2.1,0.4,2.1l0.4,0.2c0.3,0.1,0.7,0.3,1.2,0.6
		c0.5,0.3,0.9,0.5,1.4,0.7c1.1,0.5,1.9,1,2.4,1.5c0.5,0.5,1,1.3,1.4,2.4c0.6,1.3,0.9,2.2,0.9,2.7c0,0.3-0.3,1.1-0.8,2.3
		c-0.7,1.7-1.9,3.2-3.5,4.7c-1.5,1.5-2.3,2.6-2.3,3.3c0,0.4,0.3,0.9,1,1.4c0.5,0.4,1.4,0.7,2.7,0.7c1.2,0,2.3-0.2,3.4-0.7
		c0.4-0.1,1.1-0.4,2.3-0.9c1.1-0.4,1.9-0.8,2.4-1c3.6-1.3,6.7-2.5,9.5-3.8c2.7-1.2,4.1-2.1,4.1-2.5c0-0.5-0.4-1.8-1.2-3.7
		c-0.8-2-1.3-4.1-1.5-6.2c-0.1-0.4-0.1-1-0.1-1.7c0-1.1,0.4-2.1,1.1-3.1c0.7-1,1.1-1.8,1.1-2.3c0-0.8-0.5-1.5-1.4-2.1
		c-0.6-0.4-1-0.5-1.2-0.5c-0.1,0.1-0.2,0.5-0.2,1.3c0,1.6-0.6,2.6-1.7,3.1c-1.1,0.4-3.8,0.7-7.9,0.8h-3c-3.1,0-5.4-0.4-6.8-1.2
		c-2-1-3-2.2-3-3.7c0-0.4,0.2-0.9,0.5-1.5c0.4-0.7,1.7-1.3,4-1.8c1.2-0.3,2.4-0.4,3.6-0.4c1.7,0,4.3,0.5,8.1,1.6
		c1.9,0.6,3.3,1,4.2,1c0.1,0,0.1,0,0.2,0l0.2-0.1L89.6,9c0-0.3-0.7-0.8-2.2-1.6c-1.5-0.8-2.7-1.4-3.7-1.6
		C82.5,5.5,81.3,5.1,79.9,4.7z M78.5,11.6c1.7,0,2.5-0.1,2.5-0.3c0-0.2-0.5-0.4-1.6-0.6c-1.1-0.2-2-0.3-2.8-0.3h-0.7
		c-0.6,0.1-0.9,0.3-0.9,0.5C75.1,11.4,76.2,11.6,78.5,11.6z M99.5,38.8c0-0.3,0-0.7,0-1.2c0-0.4,0-0.8,0-1c0-1.3-0.1-1.9-0.4-1.9
		c-0.1,0-0.3,0.3-0.6,1c-0.5,1.2-1.6,2.9-3.3,5.2c-1.7,2.3-3.2,4.1-4.5,5.3c-1.5,1.5-2.3,2.4-2.3,2.6c0,0.1,0.1,0.1,0.2,0.1
		c0.3,0,1-0.2,2.1-0.6c0.6-0.2,1.1-0.3,1.4-0.3c1.1,0,1.6,1,1.6,2.9c0,0.9,0.1,1.3,0.4,1.3c0.4,0,1.4-1.6,3-4.9
		C98.7,44.3,99.5,41.4,99.5,38.8z M109.3,16c-1.3-0.8-3-1.2-5.1-1.2c-0.8,0-1.4,0.1-1.9,0.3c-0.9,0.3-1.9,0.4-2.9,0.4
		c-1.1,0.1-1.9,0.3-2.3,0.8c-0.4,0.4-0.7,1.2-0.7,2.3c0,0.8,0,1.4,0.1,1.9c0.8,6.3,3,9.5,6.8,9.5c1.2,0,2.2-0.5,3-1.6
		c0.9-1.1,2.1-3.3,3.8-6.7c0.6-1.1,0.9-2,0.9-2.9C111.1,17.7,110.5,16.7,109.3,16z M107.7,37.6c-0.8-0.8-1.3-1.2-1.7-1.2
		c-0.7,0-1.1,0.8-1.1,2.3c0,3.8,1.4,8.4,4.2,13.9c1,2,1.6,3,1.9,3c0.1,0,0.2-0.1,0.2-0.2c0-0.2-0.2-0.8-0.5-1.7
		c-0.2-0.5-0.3-1-0.3-1.3c0-1.1,0.8-1.6,2.3-1.6c1.1,0,1.6-0.4,1.6-1.2c0-0.8-0.4-1.6-1.3-2.5c-1.2-1.3-2.2-3-3-5.1
		C109.3,39.9,108.5,38.5,107.7,37.6z M140.6,14.2c0-1.1-0.2-1.6-0.7-1.6c-0.3,0-0.6,0.2-0.9,0.7c-0.5,0.8-2.3,1.6-5.4,2.4
		c-3.1,0.8-5.9,1.2-8.4,1.2H125c-4.3-0.1-6.7-0.9-7.3-2.5c-0.2-0.5-0.4-0.8-0.5-0.8c-0.2,0-0.5,0.1-1,0.5c-0.6,0.4-1,1.3-1,2.5v0.6
		V18c0,1.5-1.1,4.6-3.3,9.3c-0.8,1.9-1.2,3-1.2,3.3c0,0.5,3,1.7,8.9,3.6c2.8,1,4.3,1.5,4.6,1.7c0.5,0.4,2.3,1,5.4,1.7
		c2.4,0.6,4.1,1,5.2,1c0.4,0,0.9-0.1,1.4-0.2c0.8-0.2,1.3-0.4,1.5-0.7c0.2-0.3,0.3-0.8,0.3-1.6v-1.2c0-1.7-0.6-3.6-1.9-5.6
		c-1.2-1.9-1.8-3.2-1.8-3.9c0-0.6,0.9-2,2.7-4C139.4,18.6,140.6,16.3,140.6,14.2z"/>
</g>
</svg>
